<svg xmlns="http://www.w3.org/2000/svg" width="164" height="41" viewBox="0 0 164 41">
  <g id="Nagarro_Horizontal_Light" data-name="Nagarro Horizontal Light" transform="translate(0 0)">
    <path id="Union_8" data-name="Union 8" d="M34.149,18.431a7.836,7.836,0,0,1-2.4-.957l-.02-3.163h.1a9.469,9.469,0,0,0,5.779,1.66,5.149,5.149,0,0,0,3.886-1.23,3.82,3.82,0,0,0,.781-2.714v-.957a4.3,4.3,0,0,1-1.894,1.542,7.279,7.279,0,0,1-3.085.625,7.889,7.889,0,0,1-5.077-1.581,5.557,5.557,0,0,1-1.991-4.628,7.17,7.17,0,0,1,.664-3.183,5.451,5.451,0,0,1,1.777-2.167A8.057,8.057,0,0,1,34.989.527,8.465,8.465,0,0,1,37.508.156,8.068,8.068,0,0,1,40.534.7a3.325,3.325,0,0,1,1.8,1.387V.527h3.124V11.871a7.606,7.606,0,0,1-1.016,4.276c-1.21,1.777-3.495,2.675-6.814,2.675l-.217,0A13.891,13.891,0,0,1,34.149,18.431Zm.722-14.488a3.515,3.515,0,0,0-1.328,2.988,2.9,2.9,0,0,0,1.308,2.6,5.673,5.673,0,0,0,3.163.9,6.1,6.1,0,0,0,2.5-.527,3.376,3.376,0,0,0,1.64-1.406l.019-3.553a3.205,3.205,0,0,0-1.581-1.465,6.137,6.137,0,0,0-2.519-.527l-.173,0A5.124,5.124,0,0,0,34.871,3.944ZM85.324,11.91a6.359,6.359,0,0,1-2.07-4.92,6.206,6.206,0,0,1,2.129-4.9A7.873,7.873,0,0,1,90.85.176,7.712,7.712,0,0,1,96.317,2.05a6.335,6.335,0,0,1,2.011,4.94,6.244,6.244,0,0,1-2.089,4.881,8.739,8.739,0,0,1-10.915.039Zm2.382-7.771A3.645,3.645,0,0,0,86.5,6.971a3.609,3.609,0,0,0,1.23,2.85,4.467,4.467,0,0,0,3.085,1.074A4.3,4.3,0,0,0,93.9,9.782a3.66,3.66,0,0,0,1.172-2.811,3.714,3.714,0,0,0-1.152-2.832A4.242,4.242,0,0,0,90.83,3.026,4.4,4.4,0,0,0,87.706,4.139Zm-39.44,8.552a3.57,3.57,0,0,1-1.348-2.91,3.584,3.584,0,0,1,2.909-3.69,17.11,17.11,0,0,1,4.608-.527,12.221,12.221,0,0,1,1.894.156v-.41a2.12,2.12,0,0,0-.527-1.5,3.665,3.665,0,0,0-2.656-.722A7.867,7.867,0,0,0,48.11,4.628h-.117V1.7A10.635,10.635,0,0,1,53.849.156,6.847,6.847,0,0,1,58.067,1.23a3.467,3.467,0,0,1,1.133,1.5,6.886,6.886,0,0,1,.351,2.441c0,.313,0,.878-.019,1.679s-.02,1.367-.02,1.7a5.656,5.656,0,0,0,.136,1.718c.137.371.488.547,1.035.547a3.11,3.11,0,0,0,1.035-.156v2.655a4.518,4.518,0,0,1-1.972.351c-1.62,0-2.6-.547-2.968-1.66a5.719,5.719,0,0,1-4.686,1.8A5.878,5.878,0,0,1,48.266,12.692ZM51.761,8.22c-1.016.234-1.542.722-1.542,1.5,0,1.035.839,1.562,2.538,1.562A4.405,4.405,0,0,0,56.349,9.86c-.02-.332-.02-.918-.02-1.757a12.14,12.14,0,0,0-1.874-.136l-.276,0A11.1,11.1,0,0,0,51.761,8.22ZM16.245,12.692A3.572,3.572,0,0,1,14.9,9.782a3.583,3.583,0,0,1,2.909-3.69,17.107,17.107,0,0,1,4.608-.527,12.221,12.221,0,0,1,1.894.156v-.41a2.211,2.211,0,0,0-.527-1.5,3.662,3.662,0,0,0-2.655-.722,7.964,7.964,0,0,0-5.057,1.542h-.1V1.7A10.635,10.635,0,0,1,21.829.156,6.848,6.848,0,0,1,26.046,1.23a3.46,3.46,0,0,1,1.132,1.5,6.867,6.867,0,0,1,.352,2.441c0,.313,0,.878-.02,1.679,0,.8-.019,1.367-.019,1.7a5.656,5.656,0,0,0,.136,1.718c.136.371.488.547,1.035.547a3.11,3.11,0,0,0,1.035-.156v2.655a4.369,4.369,0,0,1-1.952.351c-1.62,0-2.6-.547-2.968-1.66a5.787,5.787,0,0,1-4.705,1.8A5.882,5.882,0,0,1,16.245,12.692ZM19.759,8.22c-1.015.234-1.542.722-1.542,1.5,0,1.035.839,1.562,2.538,1.562A4.4,4.4,0,0,0,24.348,9.86c-.019-.332-.019-.918-.019-1.757a12.058,12.058,0,0,0-1.875-.136l-.276,0A11.1,11.1,0,0,0,19.759,8.22Zm54.1,5.232V.527h3.2V2.714A3.85,3.85,0,0,1,78.549.977,4.52,4.52,0,0,1,81.282.2a3.492,3.492,0,0,1,1.777.371V3.807h-.117a4.567,4.567,0,0,0-1.972-.39,5.434,5.434,0,0,0-2.48.507,2.669,2.669,0,0,0-1.347,1.387v8.141Zm-10.7,0V.527h3.2V2.714A3.73,3.73,0,0,1,67.85.977,4.519,4.519,0,0,1,70.582.2a3.488,3.488,0,0,1,1.777.371V3.807h-.1a4.567,4.567,0,0,0-1.972-.39,5.434,5.434,0,0,0-2.48.507,2.669,2.669,0,0,0-1.347,1.387v8.141ZM0,13.257V.332H3.2V2.441A4.792,4.792,0,0,1,5.232.684,7.231,7.231,0,0,1,8.376,0c2.636,0,4.218.918,4.764,2.753a9.821,9.821,0,0,1,.313,2.831v7.654H10.212V6.385A4.517,4.517,0,0,0,9.841,4.2c-.391-.781-1.269-1.172-2.6-1.172a5.244,5.244,0,0,0-2.284.547A3.8,3.8,0,0,0,3.28,4.979v8.279Z" transform="translate(65.672 13.745)" fill="#fff"/>
    <path id="Path_21320" data-name="Path 21320" d="M130.5,320.19c-5.213,0-11.852-3.385-17.631-9.08a20.176,20.176,0,0,1-.9,2.113c-1.992,4.07-4.862,6.3-8.064,6.3s-6.111-2.192-8.142-6.164a30.788,30.788,0,0,1-2.87-13.7c0-8.473,2.792-15.635,7.3-18.669,3.124-2.113,7.048-2.368,11.364-.763a33.71,33.71,0,0,1,11.461,7.906,19.641,19.641,0,0,1,1.25-2.681c2.031-3.6,4.862-5.577,7.966-5.577,6.189,0,10.856,8.512,10.856,19.8a31.242,31.242,0,0,1-2.577,13.013,16.6,16.6,0,0,1-2.948,4.442,9.158,9.158,0,0,1-7.068,3.053Zm-16.811-11.683c7.263,7.632,15.073,10.293,19.193,8.923,2.109-.7,4.042-2.74,5.447-5.753a31.733,31.733,0,0,0-.254-24.539c-1.581-3.111-3.651-4.814-5.838-4.814-3.144,0-5.877,3.151-7.341,7.808,5.857,6.458,9.7,14.383,9.372,19.451a5.668,5.668,0,0,1-1.913,4.188l-.1.078a3.852,3.852,0,0,1-4.139.117c-3.729-2-6.756-9.256-6.756-16.183a30.1,30.1,0,0,1,.82-6.986c-7.927-8.258-15.6-11.154-20.657-7.749-3.788,2.564-6.228,9.1-6.228,16.673,0,9.784,3.768,17.436,8.591,17.436,3.007,0,5.6-3.131,7.088-7.965a39.305,39.305,0,0,1-8.24-13.639c-1.425-4.383-1.25-7.925.43-9.706a3.863,3.863,0,0,1,4.432-.744c3.554,1.429,7.146,6.83,7.146,14.364A35.336,35.336,0,0,1,113.694,308.507Zm10.524-15.518a27.82,27.82,0,0,0-.41,4.775c0,6.556,2.89,12.661,5.467,14.05a1.45,1.45,0,0,0,1.6.039,3.345,3.345,0,0,0,.976-2.446c.293-4.109-2.87-10.743-7.634-16.418Zm-18.392-5.871a1.074,1.074,0,0,0-.879.372c-.781.8-1.211,3.209.117,7.28a35.932,35.932,0,0,0,6.678,11.526,35.061,35.061,0,0,0,.625-6.849c0-7.182-3.456-11.232-5.623-12.113a2.515,2.515,0,0,0-.918-.215Z" transform="translate(-92.9 -279.192)" fill="#47d7ac"/>
  </g>
</svg>
